<mxfile host="app.diagrams.net" modified="2024-03-21T11:13:03.982Z" agent="Mozilla/5.0 (Macintosh; Intel Mac OS X 10_15_7) AppleWebKit/537.36 (KHTML, like Gecko) Chrome/122.0.0.0 Safari/537.36 OPR/108.0.0.0" etag="66nJNxIrFY1Noj7k-1Sa" version="24.0.7" type="github">
  <diagram name="Page-1" id="poAHmxkzQxRumvpWTgnJ">
    <mxGraphModel dx="1374" dy="710" grid="1" gridSize="10" guides="1" tooltips="1" connect="1" arrows="1" fold="1" page="1" pageScale="1" pageWidth="827" pageHeight="1169" math="0" shadow="0">
      <root>
        <mxCell id="0" />
        <mxCell id="1" parent="0" />
        <mxCell id="qjYqOhZrN3rl9mu9POWF-2" value="Encoder" style="swimlane;startSize=0;dashed=1;" vertex="1" parent="1">
          <mxGeometry x="30" y="25" width="290" height="280" as="geometry" />
        </mxCell>
        <mxCell id="qjYqOhZrN3rl9mu9POWF-1" value="" style="shape=image;verticalLabelPosition=bottom;verticalAlign=top;imageAspect=0;aspect=fixed;image=data:image/png,iVBORw0KGgoAAAANSUhEUgAAARQAAACqCAYAAABsx7DIAAAK12lDQ1BJQ0MgUHJvZmlsZQAASImVlwdUk8kWx+f70kNCSSACUkLvSCeAlNBDEaSDqIQkJKHEkBBUxIYsruBaEBEBG7oiouDqCshaEAsWFsHeN8iioD4XCzZU3hd4hN1957133j1nMr9zc+fOvZOZc/4BgBzKFouzYXUAckR5kpgQf3pScgodNwRQQBXgkKHN5kjFzOjoCIDY1PxXe38bQIr5hp0i179//1+NwuVJOQBAqQinc6WcHIQ7kPGcI5bkAYA6hPhNFueJFdyLsKYEKRDh3xXMn+SPCk6fYDRpIiYuJgBhOgB4Epst4QNAskX89HwOH8lDUvTgIOIKRQgXIuzDEbC5CJ9E2DYnZ5GChxC2ROLFAJCR0wGM9D/l5P8lf7oyP5vNV/JkXxOGDxRKxdnspf/n0fxvy8mWTe1hjgySQBIao9gPOb+7WYvClSxKnxM1xULuZE0KFshC46eYIw1ImWIuOzBcuTZ7TsQUZwiDWco8eay4KeZJg2KnWLIoRrlXhiSAOcVsycS+RITlsqx4pV/AYynzFwjiEqc4X5gwZ4qlWbHh0zEBSr9EFqOsnycK8Z/eN1jZe470T/0KWcq1eYK4UGXv7On6eSLmdE5pkrI2Li8waDomXhkvzvNX7iXOjlbG87JDlH5pfqxybR5yOafXRivPMJMdFj3FQAgiARtw6GpTBEAeb0meopGAReKlEiFfkEdnIq+NR2eJOPa2dCcHJxcAFG938jq8pU28SYh2ZdqX2wGARyni5E/72CYAnHgKAPX9tM/kDXKVNgFwqpcjk+RP+tCKDwzy66kBTaADDIAJsAR2wAm4AS/gB4JAGIgCcSAZLEBqFYAcIAGLQSFYDUpAGdgEtoJqsAvsBQfAYXAUtIKT4Cy4CK6CXnALPAByMAhegBHwHoxBEISDyBAV0oEMITPIBnKCGJAPFARFQDFQMpQG8SERJIMKoTVQGVQOVUN7oAboJ+gEdBa6DPVB96B+aBh6A32GUTAJ1oT1YXN4FsyAmXA4HAfPh/lwLlwAF8Mb4Cq4Dj4Et8Bn4avwLVgOv4BHUQClgqKhjFB2KAYqABWFSkFloCSoFahSVCWqDtWEakd1oW6g5KiXqE9oLJqKpqPt0F7oUHQ8moPORa9Ar0dXow+gW9Dn0TfQ/egR9DcMGaOHscF4YliYJAwfsxhTgqnE7Mccx1zA3MIMYt5jsVga1gLrjg3FJmMzscuw67E7sM3YDmwfdgA7isPhdHA2OG9cFI6Ny8OV4LbjDuHO4K7jBnEf8Sp4Q7wTPhifghfhi/CV+IP40/jr+Gf4MYI6wYzgSYgicAlLCRsJ+wjthGuEQcIYUYNoQfQmxhEziauJVcQm4gXiQ+JbFRUVYxUPlbkqQpVVKlUqR1QuqfSrfCJRSNakAFIqSUbaQKondZDukd6SyWRzsh85hZxH3kBuIJ8jPyZ/VKWq2quyVLmqK1VrVFtUr6u+UiOomakx1RaoFahVqh1Tu6b2Up2gbq4eoM5WX6Feo35C/Y76qAZVw1EjSiNHY73GQY3LGkMUHMWcEkThUoopeynnKANUFNWEGkDlUNdQ91EvUAc1sZoWmizNTM0yzcOaPZojWhQtF60ErSVaNVqntOQ0FM2cxqJl0zbSjtJu0z7P0J/BnMGbsW5G04zrMz5oz9T20+Zpl2o3a9/S/qxD1wnSydLZrNOq80gXrWutO1d3se5O3Qu6L2dqzvSayZlZOvPozPt6sJ61XozeMr29et16o/oG+iH6Yv3t+uf0XxrQDPwMMg0qDE4bDBtSDX0MhYYVhmcMn9O16Ex6Nr2Kfp4+YqRnFGokM9pj1GM0ZmxhHG9cZNxs/MiEaMIwyTCpMOk0GTE1NI00LTRtNL1vRjBjmAnMtpl1mX0wtzBPNF9r3mo+ZKFtwbIosGi0eGhJtvS1zLWss7xphbViWGVZ7bDqtYatXa0F1jXW12xgGzcboc0Omz5bjK2Hrci2zvaOHcmOaZdv12jXb0+zj7Avsm+1fzXLdFbKrM2zumZ9c3B1yHbY5/DAkeIY5ljk2O74xsnaieNU43TTmewc7LzSuc35tYuNC89lp8tdV6prpOta107Xr27ubhK3Jrdhd1P3NPda9zsMTUY0Yz3jkgfGw99jpcdJj0+ebp55nkc9//Cy88ryOug1NNtiNm/2vtkD3sbebO893nIfuk+az24fua+RL9u3zveJn4kf12+/3zOmFTOTeYj5yt/BX+J/3P9DgGfA8oCOQFRgSGBpYE8QJSg+qDrocbBxMD+4MXgkxDVkWUhHKCY0PHRz6B2WPovDamCNhLmHLQ87H04Kjw2vDn8SYR0hiWiPhCPDIrdEPpxjNkc0pzUKRLGitkQ9iraIzo3+ZS52bvTcmrlPYxxjCmO6YqmxC2MPxr6P84/bGPcg3jJeFt+ZoJaQmtCQ8CExMLE8UZ40K2l50tVk3WRhclsKLiUhZX/K6LygeVvnDaa6ppak3p5vMX/J/MsLdBdkLzi1UG0he+GxNExaYtrBtC/sKHYdezSdlV6bPsIJ4GzjvOD6cSu4wzxvXjnvWYZ3RnnGEN+bv4U/LPAVVApeCgOE1cLXmaGZuzI/ZEVl1WeNZydmN+fgc9JyTogooizR+UUGi5Ys6hPbiEvE8lzP3K25I5JwyX4pJJ0vbcvTRERSt8xS9p2sP98nvyb/4+KExceWaCwRLelear103dJnBcEFPy5DL+Ms6yw0Klxd2L+cuXzPCmhF+orOlSYri1cOrgpZdWA1cXXW6l+LHIrKi96tSVzTXqxfvKp44LuQ7xpLVEskJXfWeq3d9T36e+H3Peuc121f962UW3qlzKGssuzLes76Kz84/lD1w/iGjA09G9027tyE3STadHuz7+YD5RrlBeUDWyK3tFTQK0or3m1duPVypUvlrm3EbbJt8qqIqrbtpts3bf9SLai+VeNf01yrV7uu9sMO7o7rO/12Nu3S31W26/Nu4e67e0L2tNSZ11Xuxe7N3/t0X8K+rh8ZPzbs191ftv9rvahefiDmwPkG94aGg3oHNzbCjbLG4UOph3oPBx5ua7Jr2tNMay47Ao7Ijjz/Ke2n20fDj3YeYxxr+tns59rj1OOlLVDL0paRVkGrvC25re9E2InOdq/247/Y/1J/0uhkzSmtUxtPE08Xnx4/U3BmtEPc8fIs/+xA58LOB+eSzt08P/d8z4XwC5cuBl8818XsOnPJ+9LJy56XT1xhXGm96na1pdu1+/ivrr8e73Hrabnmfq2t16O3vW923+nrvtfP3gi8cfEm6+bVW3Nu9d2Ov333Tuod+V3u3aF72fde38+/P/Zg1UPMw9JH6o8qH+s9rvvN6rdmuZv8VH9gf/eT2CcPBjgDL36X/v5lsPgp+WnlM8NnDUNOQyeHg4d7n897PvhC/GLsZck/NP5R+8ry1c9/+P3RPZI0Mvha8nr8zfq3Om/r37m86xyNHn38Puf92IfSjzofD3xifOr6nPj52djiL7gvVV+tvrZ/C//2cDxnfFzMlrAnpAAKGXBGBgBv6hFtnIxoB0SXE+dNausJgyb/D0wQ+E88qb8nzA2Aej8A4lcBEIFolJ3IMEOYhMwKSRTnB2BnZ+X4l0kznJ0mc5EQZYn5OD7+Vh8AXDsAXyXj42M7xse/7kOKvQdAR+6kplcYFtHyuykK6jZYAf5uk3r/Tz3+fQaKClzA3+d/AlBaF7z+vjcEAAAAVmVYSWZNTQAqAAAACAABh2kABAAAAAEAAAAaAAAAAAADkoYABwAAABIAAABEoAIABAAAAAEAAAEUoAMABAAAAAEAAACqAAAAAEFTQ0lJAAAAU2NyZWVuc2hvdM/P/60AAAHWaVRYdFhNTDpjb20uYWRvYmUueG1wAAAAAAA8eDp4bXBtZXRhIHhtbG5zOng9ImFkb2JlOm5zOm1ldGEvIiB4OnhtcHRrPSJYTVAgQ29yZSA2LjAuMCI+CiAgIDxyZGY6UkRGIHhtbG5zOnJkZj0iaHR0cDovL3d3dy53My5vcmcvMTk5OS8wMi8yMi1yZGYtc3ludGF4LW5zIyI+CiAgICAgIDxyZGY6RGVzY3JpcHRpb24gcmRmOmFib3V0PSIiCiAgICAgICAgICAgIHhtbG5zOmV4aWY9Imh0dHA6Ly9ucy5hZG9iZS5jb20vZXhpZi8xLjAvIj4KICAgICAgICAgPGV4aWY6UGl4ZWxZRGltZW5zaW9uPjE3MDwvZXhpZjpQaXhlbFlEaW1lbnNpb24+CiAgICAgICAgIDxleGlmOlBpeGVsWERpbWVuc2lvbj4yNzY8L2V4aWY6UGl4ZWxYRGltZW5zaW9uPgogICAgICAgICA8ZXhpZjpVc2VyQ29tbWVudD5TY3JlZW5zaG90PC9leGlmOlVzZXJDb21tZW50PgogICAgICA8L3JkZjpEZXNjcmlwdGlvbj4KICAgPC9yZGY6UkRGPgo8L3g6eG1wbWV0YT4K01GZngAAI55JREFUeAHtXQecFMXTLUVAwiE55yyCIvkA/ZPzkVVAJInkKFlAEQFBESWJCKggQUDBLIIEQUVyziI5R8mKsN97zc1+y3lpYfd2b6bq99vdiT3Tr3feVFdXVz3ggoiKIqAIKAI+QOBBH5ShRSgCioAiYBBQQtE/giKgCPgMASUUn0GpBSkCioASiv4HFAFFwGcIKKH4DEotSBFQBJRQ9D+gCCgCPkNACcVnUGpBioAioISi/wFFQBHwGQJKKD6DUgtSBBSBh5wAwT///CM3rl+XFI88Yqp7+/ZtefDBO1zKZYqnwzD3/fP33/JgggSSMGFCs4/7uZ2/1jnmxPCvBDj21q1bnpvMMrdTuI/nX8d9PPzww2aZ5VjXte7n0qVLkixZMnnooTtN41kmj3nggQdMeX/fuCF0cWZZEYX7cKAkTpw44i5dVwT8isAD+EPb2vX+l1Wr5MdFiyR9+vRy+vRpGTpsmPTo1k3Gjh9vgO3etas0bdZMVixfLsuWLpVKlStLiZIlZfasWZIrVy5JnTq1FCteXA4dOiRNmjaVjRs2yJbNm+XUqVOycf16yZM3r5QsXVoaNmokM2fMkHXr1smF8+flyWLF5PDhwzL4tdfk5s2bMu7ddyVzlixyHvvOnTsnzz73nPy8YoXw4U+WPLm0btNGxo0dKxkzZpScuG6t2rXN/XXt1Emy58hhlnv26mWI5gzqMQH3T9J7ZfBgCQkJMftJVsNef11S4Z4pL7RsKRkyZDDL+qUIxAUCttZQ+Hb/8IMP5KPp082DOGXyZPnh++//g2uZ0FDh58SJE9L/lVdk+7ZtUq5cOXnxpZeEDzQJxVOoufC4sSCJsLp1JXeePGZ38xYtJH+BArJ3zx7h8h/79snH06bJv//+K9169pT5c+dKs+eflxQpUsikiRMlYaJE0rFLF/PQ816PhBMQtSJLeK0+/fpZq+b3woULkjJlSrl8+bJb0+KOqR9+KGH16pm63HWCrigCcYSArW0o7D5kzZrV3X14omhROXb0aKygXfnzzzJ44EApXabMXcd7o87lzZdP2N1KkyaNW1OYAXIb9sYb0rBxY1Pu+xMmyFsjR5ouUfuOHaUntKdVK1e6r3kbRMP9kydNcm+jlrPm998NcWzdskV27dxp9u3Yvl1KQVs6cuSIjIAmtvq339zn6IIiEBcI2FpDoSbAbge7HHzrs7vyaKFCsnvXLrl27ZokTZrU7IsM6PJPPSVt27UzNgs+tBehFVDYnQlBFyW2wi4RSc2S55s3N1oM17/5+mvpFK6hcJ1aErtbndq3l6eefpqbjB2nb//+Ztn6+mzOHJmJz2BoSX+j2zN0+HCzK1/+/LJ2zRpTTrXq1WXf3r0SWrasdZr+KgJ+R8DWhEKDKLstg/Dg0YbCh48PKu0KA/r2NZpDlapV3SBbBk9u4LnW+mOFC8tcPMDjYeMgQb0ODYNi7TcrHl+e2++YUO/s5HbLSMst3Ddh3DhJBmKr16CBzJ83z+z3JAHPsu6UIsY+M3rUKEkO28nFv/6Sq1evSnKQHOv62qBBQu3qzJkzUqFiResU/VUE4gQB2xtliSI1FHYdEnuMiES2LTrEabu2tJrIHvLozo3tPt4TbSmRjdxELIMGWI7iWKNDnvvZzeIoUWT7PI/TZUXA1wg4glB8DZqWpwgoApEjYGujbORV1q2KgCLgLwSUUPyFrJarCDgQASUUBza6VlkR8BcCSij+QlbLVQQciIASigMbXausCPgLASUUfyGr5SoCDkRACcWBja5VVgT8hYASir+Q1XIVAQcioITiwEbXKisC/kJACcVfyGq5ioADEVBCcWCja5UVAX8hoITiL2S1XEXAgQgooTiw0bXKioC/EFBC8ReyWq4i4EAElFAc2OhaZUXAXwgoofgLWS1XEXAgArYOARnX7cmUGJuRYoPR6ymMvFYHUfFVFAGnIKCEch8tzRi1mzdtksPI2cOwkImQFqMo8vEw8jzX5yC3DyPUO0VOHD8u6RGvN126dE6pstYzAgJKKBEA8Wb1EgJEHwGZUBi/tUDBgibCvRVz9uLFi7IVGotTZB7yDhV98klp16GDU6qs9YyAgBJKBEC8WU2HSPqNkQGQwmRezI/z5YIFJr0oE3TxTV2hUiVviozXx/6GPEAaGDteN+F937wSyn1DeKcARpkv8vjj5sMtJBhGn1dRBJyEgBKKn1qbBGMlPPfTJbRYRSDoENBh46BrEr0hRSD+IuAYQlm2dKncvn3btBSTmcc2x7HVtBvWr7cW9VcRUASiQMDWhHLm9Gk5d/asqTrzGW8JH3GZNnWqMO9xbOXcuXOy5McfY3u4HqcIOBYBWxPK/v375WD4sG7NWrVkMUiB6USpqYR4QSgb1q2TnLlyCR3XVKJGgGlUVZyNgG0JZeaMGfL9d9/Jt199ZRzMcuXObTxYVyxfLlWrVfOq1S9duiSh5crJli1bvDrPKQczz/KUyZPli88/NwnpnVJvred/EbDtKE/zFi3k99WrJSG8V4sXL25qnr9AAVn4xRcyYdKk/yIRw5bs2bPLujVrjBdsDIc6ZjeJZOann8q0KVOkZMmSMg/Y5s+f3zH114r+FwHbEgqrmjFjRqGDmSX1GjSQjJkySeLEia1NMf7SfpIqdWrjSh/jwQ46YMYnn8ikiROlBIhkBqYYKJE4qPGjqaqtCYV2D0/JkSOH8OON0H5SOjTUnEJth/N3vCEkb64VX451uVyyHrg0adZMXmjZUlKDcFUUASLwAP4cLoUiagRm4+37ODxgKSdPnpSUKVOat3LUZzhnDz2Baei+cvmyVKtRQ4nFOU0fZU2VUKKE5s6O45hBywdmNewxodBUMmXOLCEhITGc5azdbmK5ckWqVa+uxOKs5r+rtkood8ER9coCGBwbNmoU9QG6x8xdMhqLEotj/w22tqE4tlUDVHHGg6kTFqbEEiD8g+GySijB0Ao2uweLWG7evCmfz58vqVKlkho1a9qsllqdyBBQQokMFd123whw2sNPS5YYe0qVGBwJL8NGxeOzYwSOo2jX4c1MeQQGcO67DQ9cDv9bo0lXr16VC4iElzpNGkmaNKk5xvJi5hD/VXS5UjzyiLsODCVx8MAByZotmwnLycBY3E+PaR5Lr+kb8IJ+AGdYIxQM36niPQIJhkC8P815Z+zCXKBHCxVyXsW9rDGJ4esvvxRGqwurV0/ywdEtuqBLx48dk1FvvmmCUiVMmFDmz5sn69auNWE1c+bMKd27dDEkcwzHPVa4sLmbQa+8ItR+PsKcLJY//r335MiRI7Jv3z7TRoMGDBBOtaCcPXNGBmI9AQjpQ3jzFoBz45jRo6UsPJ/37N4tr/TvLw0bN5aJ48dLSmhS38CzmtvZ1hp+wkDo1ZdqKF7BpQdHhYCnRvJskybmAY7qWM/tp0FAj0BbeBaR70g8NOo+8+yzkjtPHnNY2rRppW27dp6nmOUGMJDT6ZAjcJSWrVtLsmTJzLLn17vvvCM9e/cWklOlKlVkyKuvSoWKFU0s4O3btklaRNWjdnIUhMTzT8E1IAFi2bBcp/sbeeIY22UllNgipcdFigAJ4afFiyUNuh/eEIlVGGPQUvvo1L699O7b12zmvCB2d7p27y4nTpyQkSNGGEKgI50l1CgYcrNu/fpmE7UOEkBfaByeQk2JZEJJj5CdN+E7UwbD/wsw74hdp/9VqCCrEbqSXaAcOO75F16Q23DNSgMiU/EeASUU7zHTM4CAJ5E817RprDWSyMCrXaeOcRYkSZCYXgK5WBpKJkyV6I8uTkTp0q2b7N271xAD970MLSQyDYV+Qxs2bDDzuRjCguvZYEshiWXGcqlSpWRAv35Gw2Fw8Tx580a8lK57gYASihdg6aH/jwAnSrJrULZ8+fsiE3Y7vly4UP6CoZTdltW//momG9J5kLaNK9AiRg4fbq7VBw8+JRkMsRPGjTPdFBLLnNmzjV0kIe6nRatWxqOZ56RBd6Znr14yfOhQWbxokVzGrPG+sKeQOEKSJzeaSpasWeUKDLPUWlTuHwF1bIslhurY9l+gaHv44fvv5V8YSGvACKoexP/FyGlbVENxWov7sL4cWm3QsKExaiqx+BDYeFyUEko8brxguXUllmBpicDfhxJK4NvANnegxGKbprzniiih3DN0emJUCHgSC4dnmWHR27CbUZWt24MbASWU4G6feHt39P/4ESMr9O+gr4eKMxBQQnFGO8dZLS0ioU8IDbacKKjiHASUUJzT1n6tqRKJX+GNN4UrocSbpgrOG1UiCc52CdRdKaEECvnw6546dUoyZMgQ4Lvw/vLbtm6VnZhLo10b77Gz8xm285TlfBDO1/C1cCaslRvZV2Vzcto4TL1ft3Gjr4qMs3KqVqokyeG+3r1HD6mAZRVFgAjYjlDik4s8p9/XwJT6dZs2xbt/I5MlLPrhBxk/dqwJWtQNM4OVWOJdM/r8hm2bitTnSGmBdyHACXYMYvQdhoYZr2TUyJFSCxHvf8PkPhXnIuAYQuEblWECPbst3EajorXN+uX2iMtctz78u0Qsy6l/IRJLrdq15XsERsqGdK1M/6riXAQcY5SdO2eObNm8WRhftErVqlKmbFkZhmntORFUhyH/BgwaZEIRjnrrLRNng5G+Ppo+3aj05Z96ykT6YtjAwkWKyF8gIQb3+QezbOm0xXgeThcSC7MypkB8VhXnIuAYQrmFQMeMr/FksWLSBzEyfkOUrpegqjOB+sGDB+UtqOzct337dpNmk6MXjFt65PBhE8mLCdetQD8zQDQNUBbjk77x+utKKM59frTmERBwTJeH9WYAZJIJY5YyeDHJhEIt5RpGXJgZkAGSaSwtB61kw/r1JsYH374bEfWLpLNq5Upzzhcoq92LL0r7Dh3Mun4pAoqAiKMIpX6DBjIGw7TsujBHMUMIUg78+aekQ3QvRlDf/8cfZtSCoQEZVZ1dI0oxaCiMV/rU00+b9UYgpXYIVch4pCqKgCJwBwHHdHlYXaZpoLZB6YWAyK8jAnrefPlk//79MmDgQLPvX3SNSpQsKbly55bdsK2EglDY9VkPbeVNhBWkncAS7mM8UgY2VlEEvEWAEe/40jqPHEPFS5Qwo2YMh8mZ2exyf/fttyZY9rKffjIadFJsqwr7H4NZPZwkiXm55cP/l9ozk9UzjOYvq1bJH0gnwrxF9J1iLqI2bdt6e2v3fjxGNGwlX3z+eazrg1Eb16VLl1z8DYScPXvWVaJo0UBc2ufXhK3J9XL37i7kzHGhy+jz8oOtQAyPu+bPnevCw+06ferUPd0esdq6ZYs597VBg1wgA9er+AXBmG1vDhvmOn78uFnu1qWL+UVX3TV0yBAXXnKu1i1auP7cv9+FiP9mHzIEuHgOZe5nn7nQPTfLcfnlKA0lIu1SW9E4qBFR8X6dw+m/wv/kHXQn8ecVjqh5przwvsTgP4N5iOqHh7+kre1cuG2NWgQN+IwBE5NQiyjy+OPmsFawx8369NOYTjH76WHNrrmnxh2rE+PgIEcTShzg64hLUHW3hotJ0oyGT49lO8vhQ4dM9Tj9gK4D9EvaDLcEZi+cPXOm1EciMs/ucWRYEDdLmBKVaVVJzgz6TbkJF4dE6KZHFCYlg2YjI99+26RSpSsEheclDHC4CEcRCvPk0h7CHLnMoWtlhrOWr1+/bvxU+Cfhg3ENOXY53Mx1Cs9lfA++hf/h+eH5b/lnspbNgQ774oPABFqWlyyTo9PXx87CdKtrkUqEqVT5X+H/oijcDkqVLu2208VUf7opzJk1S/6HTIaTJk6U3rDH7d2zxySYrx0WJuhKmfSoEcspULCgPINMixRiT23l2NGjhsQ54BBQicv+VVxcKyobyq+//OJiPxVzT1zIw+Ky+qS8p26dO5tba1C3rgsN6+rcoYMLJOMKq1XLhfwvrh7durkuXLhg7AM8kDaXLh07upB024URItfwN94w53v7ZScbCjHp3rXrPWPhLXaBPh6zxF2HDh26L/sbXlYuJJR3fTxtmuvAgQPuKi1butRs43/OEowmmkW89FwwwlqbzS/tLNOmTHFZx3AjbSu0qcS1OEZD2YQZvVVgPafXa1TCVJQdOnUyHrR42CUvssh17tpVBmBEiCqpJXwj8bjpn3xiLPTde/a0djn2l5gw1Sc/ThBf1JOjMJUxOTSiVIxk9raViIzxeqnZeAqzK0YcyeEoZSDEMX4onMBGlXwgfEnYRYlMqDrSee0W+qSMUbJzxw6TtY55dpOFd3us8x4rXNg4x5F0mOxbRRFQBEQco6FYibS/mD9fli1bZtqexJIICbY5J4fCvLZMd8m3LVRFKfTYY9IPeXW5zjH+iJIdPikkFhVFQBG4g4BjCIVGtD0weJ06edI4sWVFTtu+ffpIcgzzPRdu4Io4DEeLOcnEEubhHTlihOTMlUuaMEE4RjOotqooAorAHQQcFWCJozQkDUs4gkNJkCCBtSlOf+NzgKXIgBoxbJixobB7qeJMBByjobB5PcmE64EiEl5bRRGwIwKqr9uxVbVOikCAEFBCCRDwellFwI4I2K7L8xDsIf5w+z5x/LjPo+nTZbokPCtVFAG7IGA7Qqlbv75f2sZf0fSfDR9h8stNa6GKQBwjoF2eOAZcL6cI2BkBJRQ7t64P6kbfG8wJibEkZg/Yhwh4kTkAxniyHmAbBJRQbNOU/qnIZ4htsnzp0kgLJ4nMmztXEOhHKmCOFKfeWyEyIz1BN9oeAdvZUGzfYgGuIElkMXLw/PDdd7IJGQ/Lly9vptK/P3myJEFYQhVnI6CE4uz2j1XtryFODDURJZFYweXog5RQHN38MVf+4IEDshDR1zilnkF9fK2JnEYoRSsUAKciMPjVEUQkY/cpS5YsZq4UQyWmRVYCCo9JkyZNzDeuRwQEAbWhBAT2+HNRRk3vg5APEyZNMilHfd2tafrMMyZqOxEZPWqUiZDXu0cPk9IUga8EQcSlds2agoBGBjQeoxK8CCihBG/bBMWdPYQZ1ZHFNfXVzZVA/qMpsL9w4qYlDAvB2dwMb3gD3a2nkQtpNFLEqgQ/AtrlCf428vkdMg5MbIaCeeFDSNNqZVj0+Y2gwAQI/8AI+Qhh6A4VsQPpYJkDibFTk4BU0qRNaz5LkZ9GJbgRUEIJ7vbxy90h7q55gGNTOOKmSjZ0e/wpjBrP5FXXERScwqBVTLxG4agSpVXr1tID4ThTq/3E4BGsX0oowdoyfryvZs2bCz+xESSjkkKFCsXm0Hs6JiUi5FN69e4t/RC7l5IKhllLHkSAK4bYZOiJl5D69XPklFYJXgRsF2DJX1D7ay6Pv+7XV+VahBJbAvLVdbWc+ImAGmXjZ7vF2V0zT+6K5cvlH+Td8RTm4921c6fnJl1WBEQJRf8E0SJw8cIFQZ4YCUUC+T69eslyBPgmubyN4dtnkIrz0xkzoj1fdzoLASUUZ7W317XlsO5QxIr9fvFiKVykiHzw/vtSFL9IFC5TPv5YmEWgw0svuY2nXl9AT7AVAkootmpO/1WGeYpatmolczFC1A7GUSaXCg0NlfkLFkhOJEgLg/PZmt9/998NaMnxAgEd5YkXzRS4m2Q+I6YL8RQaqM8gs2LpEiUkJCTEfOjX8nyTJtL6xRdl4ODBnofrsoMQuPuf4qCKa1Vjh8DLGM5l+ktPWYkMjDfgHHcZbvFMQG99Ppo6VbMoegLlwGUllBga/cdFi+Tq1atyDm9kzrh9DNkEnZQtMBkSoUUmJBl+0nnkMl7588//IZ/IztVt9kUgaAjl22++kbVr1piYGvXC48IyuE8iZO9LC9drJiene/ZDcHBiX54POUcZvsMDPxkT1+ggxfkfl5Ay9AW4cn+FeB37MOT56fTpQrU9RYoU0rV7dxk6ZIgJAsTZs3yjhtWte9dDEbGp+RZuhAlszCCI7Pb6Bo4IkK4rAh4IBAWhHPjzT+HbbSQmgDG1J6eut2nZ0kyV5wSxkZjX8cuqVXIU09r//vtvk3eYQX441f0a3LWZXvQwXMRJKN+DSEJAHowo/yZGJ8aOH2/W3xszRpZgpIKT0L5cuFBKIdo8wxXewrWik3z58xtiyo/fY0ePSmjZstEdrvsUAUcjEBSjPGvXrpVq1au78wRz/ganzZNMKBWgTezetUtugiQ4E3XP7t2yaeNGKQ6jIKe3c3t6jEIwdscuHFcYc0HOnDkjKVOmNGTCMipVrmzK+BeE0gaGw/HvvcfNMQq7N4yrqqIIKAIxIxAUhMIhSGopliRPntxoAy6Xy2z6c/9+QzAuaBM1a9eWz2bPFg5jJscIA7skUFmkdliYTIdfBImI26nJkFSo7VD2o4wsSJBOeaJoUUNCnPgWk3D6/m3kQKYRkl0nFUVAEYgagaAglLLlysnePXtk0sSJJkkXuy/UWEaNGGEmg21Yv95oGOye5ICGsnPHDgmrV09CQDzUUJj0PF++fCbGKW0iJKQrGH1o2LixDBs6VBbAd+LnFStMgCALih49exotx1qP6Xfjhg1StFixmA7T/YqAoxEImsmB1EaoiVCzoN2Cs0vp20ANJHeePEJNgSMtjI3BYUr6P1y5csUkPL8GA63ndp6TEMZcjkIw0hfdx1kGy7TKYKsznCBnsrLs6GTL5s2yCjaezt26uWN2RHe8U/eNgM2K4RzbtmvnVAgcX+/on6Q4hIejKHny5r3riuwK8WMJSYNCMqFQE6FYYQmt7TTKWsKuET+WWGVwPbaxSWlHoYbDe1RRBBSBqBEIii5P1LcXHHuowXDYWkURUASiR0AJJXp83HvpD6OiCCgC0SOghBI9PrpXEVAEvEAgaGwoXtxzvDv0JBzvfl+9Wtbg8ztm5C746itJFR76MN5VRm9YEYgGASWUaMC5110cWaKbPgmEU/o5KlUSnrmly5QxfjIPJUhwx3/mXi8QpOdFjOoWpLept+VHBJRQfAwuXfufadDABFqme/94BCQqhAmF1ggRpxQwD40dhXVv16GDHaumdYolAkHjhxLL+403h1l+NVu3bpVbmBpAoS/Mn/AIbozJhiqKgB0RUA3FT61q+dVYvjUWwVi+M366rBarCAQUAdVQAgq/XlwRsBcCOmxsr/bU2igCAUVACSWg8OvFFQF7IaCEYq/21NooAgFFQAkloPDrxRUBeyGghGKv9tTaKAIBRUAJJaDw68UVAXshoIRir/bU2igCAUVACSWg8OvFFQF7IaCEYq/21NooAgFFQAkloPDrxRUBeyGghGKv9tTaKAIBRUAJJaDw68UVAXshoIRir/bU2igCAUVACSWg8OvFFQF7IaCEEkV7MuHY6dOno9irmxUBRSAyBBxFKG+PGiVvDh8ui3/80WBxFrmPmaqUwvCF/fv2Ncv8IpnM+OQT97ouKAKKQMwI2Dpi2/nz502w6Np16hgkGDVtwMCBblTSpktnkrIzNzKDShd98kkTUHrqhx9K0qRJ3efMmTVLjh8/Lu07dnRnLXQXoguKgCLgRsC2GsoZaBjHjh6Vo0eOmF9qIMwA2AWkQPKwpETJkrJ50yZZsnix1KxVS95Eft5nn3tO8hcoYA755KOPJEPGjNKzVy9JliyZdZr+KgKKQCQI2JZQ9iPx+q5du+TYsWOybds2oXbycu/eMvrdd2X+3LluKGrUrGm6QCQcJk6/hETrWbJmlVy5c5tjdu7YIaFly5qk7A8+aFu43HjogiJwPwjYtstTJjRU8oYnXydpHDxwQFatWiUHQDQNGzd2Y0by2LF9u7zQooXZVhrnjX7rLUNAJKEmzZrJwAEDpFSpUlInLEw8E7G7C9EFRUARMAjYOkj17du3hcmnHn74YUMQ7AIlRbclderUdzX/lStXJEmSJEYL4Q52k2hfoW2F3ZwLFy7IVRxD8rHy69xVgK4oAoqAQcDWhKJtrAgoAnGLgBoF4hZvvZoiYGsEAkootFHw42/JmzOn8ONrofPb1atX5fr163cVTQMvt7Mrdb/Cbtu9YmTV2fqN6l5oX/JGeE+sG3M2W+LZltzuuc86Rn/tj0DAjLL8A9JxLDHsG0zNOWb0aDl79qy0QO7fwkWKGOQXLlgguzFSkw72jLbt2klfjNKMevtteW3wYHkBx+XLl88kI/942jRJmzatFHniCXmuSZM4a7X169YJR4GYDZCG3STwXUmAROh169eXX3/5RS799Zf06tPHfT9fzJ8vTE36+htvyLq1a+XkiRMSVq+eez8X6DtzAwSVOUsWs/3rr74y9XyscOG7jvNcOXTokKROleqeDcbvjhkjY8eP9ywy2uV/kVp1wrhxxhmQfj2j4TB4CyRD+xLbZfrHH5vzB736arTl6E77IRAwQtmBB/GPP/4wDyMfor79+8uunTuNP4hFKA0aNjSG0e5duhjkaWCdOmWKVKhY0Txk3EhtoGq1atIIpNS9a1d5DInJaWBlCtCvv/zSPNyezfYVttXDA08yyJQpk2zHkPJFPPiH8VB2xvmWQ9t2EMQSeNQ+WqiQcJTo22++kUMHD0rKlCmlWfPm5uHJgoc+YcKEpviNGzfK4NdeMwT5F8orAlLkELSn/Asj7zmQJsmEb3mu37hxQ6ahThSS5nt4uC8Ajz7AI3v27JIVhmBec/GiRXICBHTt2jWTkJxES9+ZajVqyAgQFMm1fadOQtIiqUWWtJx1OIDcyg0bNZL0GTLI5EmTDP5Qgdy3SQM0iT4kJERatWkjP+EarMcRGKo7du5sDNyJEiWSYsWLm3NmzZxpiNxyHuRGJolXcSYCAevy8MHnH7tylSqSPn1680YfgjcaH15L6P7eD1qJRTB8oPlglYQzmqesXLlShkBrCcWQ7969e+XI4cNm97JlyzwPu7Ptp5/ML4mE5VMLKo0HIKxuXXkH2g/lMh6gKR98ID1eftk4vW2DVvHZ7NnSpm1boTawZ/duc1zOXLnMw2M9QGPeece8uenPwmHratWrm+M8v/gGnzJ5siFCbh8BRzpqNBUrVTLD1U89/bTUgmcvyYRCzefUqVPmPmvA8Y4P+tIlS+SjqVMNsRUsWNBcq0WrVkaTa9K0qelurFi+3JxvfW3csMGQJoe+358wQcaPHSvlypc3ZHwzPJk7j2UbtAaRZMP1SSwcai/46KOmDeZ5+O+wbvxsXL/e3DvJ7q2RI43ToLXPurb+OgeBgBEK1eMnixUTeqpS+Oeejrcd/+iWkGjoiLYbDzD77NmyZZMRUK/fhp+Ip/BtSdWbPiN0PqP6HZXtwbJHcD+F3rM5aGPBG/7cuXNmGzWWTJkzGy2EHrMnT56UNOhSUfPh0DHtI5HJy/Cm7dKtW2S73NsSJ04sLVu3FrrzU6iNUAvJlz+/nMJ1KNY9mpXwr0Q4LwO0Ch57Bdfv98orhrx+XrHCHMFzqPlMBwmkRPeHw9yechBkzC7YJngF84GnxlEIpM56JvBw2LsFckkBQnwUJEKnQLZTVuDO60Ysk+XnzpNHtmzebLQ9EiG7gCrORSBgXR5PyPnAUlW/ePGi6c7QNZ4T987gQ6GKza7Ig1DlqdpnxkOwbOlSqVS5stmfHL4itMVQCsPWQMe0rVu2mPPMRo8vEsK70CT45n8Cc3foa0ISOw0twLK/sHySxswZM4zNYzDe2uwu3ItMhG2i6fPP3+X7QvL8cuFCUxxtKNRS2J1rDuc6+sxwLhG1sHQg1KiEGNGfhl2gjJgawK4Hz+H6eRAj7U6eQg1oFTQ5ah6JUT/WdRAc9sw6yMoSOvaNBYlT46BGRgyiE5Jjf9iJNkBTYZsVgMak4mAE8GYLCkHf3cUPBaMnLoycmA/IxoWH3myHsdL8ct1ahg3FhYfRbLe+WA7LgH3C2uT+5bn447t4HoyLrm6dO7ug/bivbR3Ifby2VbZ1PZbLfRGF+6H1RNzswsPp3sayrHM975v3CzuF+zjMQ3Jf17qedX3rPBCeqQdP4nVBAOaX5/Ic677dhWKB21knlkHhdUFAbizNRnwRH5ZPserF++b5UQnLwshOVLt1u0MQcLxj27dffy11YD9RUQQUgftHwPGEcv8QagmKgCJgIRAwo6x1A/qrCCgC9kFACcU+bak1UQQCjoASSsCbQG9AEbAPAkoo9mlLrYkiEHAElFAC3gR6A4qAfRBQQrFPW2pNFIGAI6CEEvAm0BtQBOyDgBKKfdpSa6IIBBwBJZSAN4HegCJgHwSUUOzTlloTRSDgCPwfKesFV/VrrdYAAAAASUVORK5CYII=;clipPath=inset(15.29% 27.17% 4.12% 6.88%);" vertex="1" parent="qjYqOhZrN3rl9mu9POWF-2">
          <mxGeometry x="14" y="15" width="276" height="207.75824175824178" as="geometry" />
        </mxCell>
        <mxCell id="qjYqOhZrN3rl9mu9POWF-4" value="" style="endArrow=async;dashed=1;html=1;dashPattern=1 3;strokeWidth=2;rounded=0;endFill=0;" edge="1" parent="1">
          <mxGeometry width="50" height="50" relative="1" as="geometry">
            <mxPoint x="240" y="188" as="sourcePoint" />
            <mxPoint x="520" y="188" as="targetPoint" />
          </mxGeometry>
        </mxCell>
        <mxCell id="qjYqOhZrN3rl9mu9POWF-5" value="" style="endArrow=blockThin;html=1;rounded=0;exitX=0.993;exitY=0.395;exitDx=0;exitDy=0;exitPerimeter=0;fillColor=#f5f5f5;strokeColor=#666666;gradientColor=#b3b3b3;endFill=0;" edge="1" parent="1" source="qjYqOhZrN3rl9mu9POWF-1">
          <mxGeometry width="50" height="50" relative="1" as="geometry">
            <mxPoint x="390" y="120" as="sourcePoint" />
            <mxPoint x="520" y="120" as="targetPoint" />
          </mxGeometry>
        </mxCell>
        <mxCell id="qjYqOhZrN3rl9mu9POWF-6" value="&quot;Barrier&quot;" style="swimlane;startSize=0;dashed=1;" vertex="1" parent="1">
          <mxGeometry x="340" y="30" width="90" height="280" as="geometry" />
        </mxCell>
        <mxCell id="qjYqOhZrN3rl9mu9POWF-9" value="" style="pointerEvents=1;verticalLabelPosition=bottom;shadow=0;dashed=0;align=center;html=1;verticalAlign=top;shape=mxgraph.electrical.resistors.resistor_2;direction=south;" vertex="1" parent="qjYqOhZrN3rl9mu9POWF-6">
          <mxGeometry x="30" y="90" width="20" height="70" as="geometry" />
        </mxCell>
        <mxCell id="qjYqOhZrN3rl9mu9POWF-7" value="PLC**" style="swimlane;startSize=0;dashed=1;" vertex="1" parent="1">
          <mxGeometry x="450" y="25" width="90" height="285" as="geometry" />
        </mxCell>
        <mxCell id="qjYqOhZrN3rl9mu9POWF-10" value="&amp;nbsp; &amp;nbsp; &amp;nbsp; &amp;nbsp; &amp;nbsp; &amp;nbsp; &amp;nbsp; &amp;nbsp; &amp;nbsp;+3.5Vdc&lt;div&gt;**PLC minimal pulse signal is 4.5Vdc&lt;/div&gt;" style="text;html=1;align=center;verticalAlign=middle;resizable=0;points=[];autosize=1;strokeColor=none;fillColor=none;" vertex="1" parent="1">
          <mxGeometry x="350" y="203" width="220" height="40" as="geometry" />
        </mxCell>
      </root>
    </mxGraphModel>
  </diagram>
</mxfile>
